<?xml version="1.0" standalone="no"?><!DOCTYPE svg PUBLIC "-//W3C//DTD SVG 1.1//EN" "http://www.w3.org/Graphics/SVG/1.1/DTD/svg11.dtd"><svg t="1605149176240" class="icon" viewBox="0 0 1024 1024" version="1.1" xmlns="http://www.w3.org/2000/svg" p-id="8009" xmlns:xlink="http://www.w3.org/1999/xlink" width="128" height="128"><defs><style type="text/css"></style></defs><path d="M134 366.7c18.3 0 33.1-14.8 33.1-33.1v-120c0-6.4 5.2-11.6 11.6-11.6h69.1c4.2 0 8.1 2.3 10.1 6l26.8 48c13.7 24.6 39.8 39.9 68 39.9h492.6c6.4 0 11.6 5.2 11.6 11.6v26.1c0 18.3 14.8 33.1 33.1 33.1s33.1-14.8 33.1-33.1v-26.1c0-42.9-34.9-77.8-77.8-77.8H352.7c-4.2 0-8.1-2.3-10.1-6l-26.8-48c-13.7-24.6-39.8-39.9-68-39.9h-69.1c-42.9 0-77.8 34.9-77.8 77.8v120c0 18.3 14.8 33.1 33.1 33.1zM941.2 407c-14.5-16.8-35.5-26.4-57.7-26.4H140.4c-22.2 0-43.2 9.6-57.7 26.4-14.5 16.8-20.9 39-17.6 60.9l53.3 355.5c5.6 37.6 37.3 64.8 75.2 64.8h636.5c37.4 0 69.7-27.9 75.2-64.8l53.3-355.5c3.5-21.9-2.9-44.1-17.4-60.9z m-47.9 51.1L840 813.6c-0.7 4.8-4.9 8.4-9.8 8.4H193.8c-4.9 0-9-3.5-9.8-8.4l-53.3-355.5c-0.6-3.9 1.2-6.6 2.3-7.9 1.1-1.3 3.5-3.4 7.5-3.4h743.1c3.9 0 6.4 2.1 7.5 3.4 1 1.3 2.8 4 2.2 7.9z" fill="#333333" p-id="8010"></path><path d="M656.2 527.7H367.8c-18.3 0-33.1 14.8-33.1 33.1s14.8 33.1 33.1 33.1h288.3c18.3 0 33.1-14.8 33.1-33.1s-14.7-33.1-33-33.1z" fill="#333333" p-id="8011"></path></svg>